<?xml version="1.0" standalone="no"?>
<!DOCTYPE svg PUBLIC "-//W3C//DTD SVG 20010904//EN"
 "http://www.w3.org/TR/2001/REC-SVG-20010904/DTD/svg10.dtd">
<svg version="1.0" xmlns="http://www.w3.org/2000/svg"
 width="423.000000pt" height="423.000000pt" viewBox="0 0 423.000000 423.000000"
 preserveAspectRatio="xMidYMid meet">
<metadata>
Created by potrace 1.14, written by Peter Selinger 2001-2017
</metadata>
<g transform="translate(0.000000,423.000000) scale(0.100000,-0.100000)"
fill="#000000" stroke="none">
<path d="M2590 4142 c-66 -14 -133 -14 -1010 4 -294 5 -428 0 -455 -20 -20
-14 -40 -193 -50 -441 -3 -88 -10 -200 -16 -250 -5 -49 -11 -175 -14 -280 -8
-300 -14 -396 -26 -455 -6 -32 -13 -207 -15 -415 -2 -198 -7 -406 -10 -461 -5
-69 -2 -119 6 -155 14 -56 16 -63 44 -116 9 -18 14 -33 10 -33 -4 0 3 -8 14
-19 12 -10 22 -23 22 -29 0 -6 3 -12 8 -14 4 -2 19 -18 34 -36 16 -19 28 -30
28 -25 0 4 6 -3 13 -17 12 -24 53 -51 374 -249 143 -88 180 -121 212 -190 l25
-52 -21 -93 c-12 -51 -35 -123 -51 -159 l-31 -67 -44 0 c-136 0 -610 -202
-685 -293 -8 -9 -6 -23 7 -52 36 -78 44 -83 201 -109 78 -13 162 -22 186 -21
25 1 41 -2 37 -7 -3 -6 3 -5 14 1 14 7 24 7 33 -2 10 -9 11 -9 6 0 -4 7 -2 13
3 13 6 0 11 -4 11 -9 0 -10 26 -9 36 2 14 14 26 7 14 -8 -11 -13 -10 -14 4 -9
9 3 16 11 16 18 0 6 5 4 10 -4 6 -10 10 -11 10 -3 0 9 7 10 25 3 31 -12 153
-11 161 1 3 5 11 6 17 2 19 -12 36 -12 43 -2 3 6 12 5 21 -3 12 -10 83 -13
295 -15 153 -1 278 2 278 7 0 4 9 10 21 13 14 4 19 1 16 -7 -3 -6 4 -13 14
-13 12 -1 17 3 13 9 -5 7 -2 8 6 3 17 -11 139 -12 133 -2 -3 5 5 8 18 6 13 -1
31 1 39 4 8 3 47 8 85 11 39 3 79 7 90 9 11 3 30 5 43 6 13 0 21 5 17 10 -3 6
6 8 20 5 14 -2 25 0 25 6 0 6 5 8 10 5 6 -3 16 -3 23 2 13 8 14 8 72 18 22 4
70 26 106 50 37 24 70 41 73 38 3 -4 6 -1 6 6 0 7 4 10 8 7 4 -2 19 4 32 15
17 12 20 19 10 19 -13 0 -13 1 0 10 12 8 12 10 1 10 -10 0 -11 3 -2 14 10 11
8 17 -6 25 -17 10 -17 10 1 11 18 0 18 1 -2 17 -59 49 -66 53 -74 40 -5 -8 -8
-7 -8 6 0 15 -11 22 -32 18 -5 0 -8 4 -8 10 0 5 -4 7 -10 4 -5 -3 -10 -1 -10
5 0 6 -4 9 -9 6 -4 -3 -17 1 -27 9 -10 8 -27 15 -37 15 -10 0 -30 8 -44 18
-15 9 -24 12 -21 6 4 -6 1 -11 -7 -11 -8 0 -12 4 -9 8 2 4 -13 7 -35 6 -22 -1
-37 1 -35 5 3 5 -4 8 -15 8 -27 0 -31 1 -60 16 -14 7 -28 11 -33 8 -4 -3 -8 0
-8 7 0 6 -8 9 -20 6 -11 -3 -18 -1 -14 4 3 5 -3 9 -13 9 -10 0 -31 7 -48 16
-16 8 -38 14 -50 13 -26 -2 -85 20 -85 32 0 6 -10 20 -22 32 -24 24 -28 31
-28 48 0 5 -4 7 -10 4 -6 -3 -7 1 -4 9 3 9 2 16 -3 16 -5 0 -10 6 -10 13 -2
27 -42 158 -52 171 -9 11 2 24 57 65 38 28 80 51 93 51 59 0 202 93 377 244
120 103 177 164 226 240 21 33 45 66 53 74 8 8 29 45 46 81 l32 66 -22 130
c-12 72 -24 189 -28 260 -3 72 -10 157 -15 190 -6 33 -10 155 -10 270 0 116
-5 251 -10 300 -36 317 -38 375 -41 858 l-1 327 -35 29 c-23 19 -43 27 -61 25
-84 -11 -252 -15 -282 -7 -19 5 -46 6 -60 3 -14 -4 -33 -3 -42 2 -13 6 -18 5
-18 -4 0 -9 -3 -9 -8 -2 -5 7 -26 6 -72 -4z"/>
</g>
</svg>
